<?xml version="1.0" encoding="UTF-8" standalone="no"?>
<!-- Created with Inkscape (http://www.inkscape.org/) -->

<svg
   width="64"
   height="64"
   viewBox="0 0 16.933334 16.933334"
   version="1.1"
   id="svg5"
   inkscape:version="1.1.2 (0a00cf5339, 2022-02-04)"
   sodipodi:docname="subscription.svg"
   inkscape:export-filename="/home/tawjarkor/Downloads/subscription.png"
   inkscape:export-xdpi="96.000008"
   inkscape:export-ydpi="96.000008"
   xmlns:inkscape="http://www.inkscape.org/namespaces/inkscape"
   xmlns:sodipodi="http://sodipodi.sourceforge.net/DTD/sodipodi-0.dtd"
   xmlns="http://www.w3.org/2000/svg"
   xmlns:svg="http://www.w3.org/2000/svg">
  <sodipodi:namedview
     id="namedview7"
     pagecolor="#ffffff"
     bordercolor="#666666"
     borderopacity="1.0"
     inkscape:pageshadow="2"
     inkscape:pageopacity="0.0"
     inkscape:pagecheckerboard="0"
     inkscape:document-units="mm"
     showgrid="false"
     units="px"
     width="512px"
     inkscape:zoom="6.2303899"
     inkscape:cx="40.607411"
     inkscape:cy="35.070037"
     inkscape:window-width="1551"
     inkscape:window-height="752"
     inkscape:window-x="4157"
     inkscape:window-y="133"
     inkscape:window-maximized="0"
     inkscape:current-layer="layer1" />
  <defs
     id="defs2" />
  <g
     inkscape:label="Layer 1"
     inkscape:groupmode="layer"
     id="layer1">
    <path
       style="fill:#000000;stroke-width:0.0254032"
       d="M 8.6146631,16.305407 C 8.5077478,16.219099 8.2342242,15.93783 8.2342242,15.914196 c 0,-0.0091 -0.3343699,-0.346966 -0.7430442,-0.750673 -0.4086742,-0.403705 -0.7587938,-0.764567 -0.7780434,-0.801914 -0.056932,-0.110452 -0.016204,-0.184583 0.2381625,-0.433491 0.3987426,-0.390184 1.2951763,-1.292837 1.302065,-1.311096 0.013743,-0.03644 0.31276,-0.342588 0.390912,-0.400248 0.09562,-0.07055 0.2140604,-0.07841 0.2977813,-0.01977 l 0.058654,0.04108 -0.011954,0.574945 c -0.00658,0.31622 -0.00589,0.680686 0.00154,0.809924 l 0.013491,0.234981 h 0.3735251 c 0.5082457,0 0.5757445,0.02723 0.6898055,0.27822 0.06381,0.14042 0.07721,0.315782 0.03254,0.425947 -0.0618,0.152418 -0.2731826,0.315789 -0.4237996,0.327545 -0.024451,0.0019 -0.1930645,0.0049 -0.3746976,0.0067 l -0.3302418,0.0032 v 0.695479 c 0,0.771377 0.00552,0.746448 -0.1704754,0.769897 -0.079019,0.0105 -0.1122909,-1.26e-4 -0.185779,-0.05944 z m 2.0796029,-1.888159 c -0.205586,-0.136174 -0.299121,-0.392825 -0.215707,-0.59188 0.08763,-0.209114 0.173337,-0.265139 0.829455,-0.542186 0.407595,-0.172108 0.741685,-0.351929 1.107749,-0.596235 0.410913,-0.27424 0.650653,-0.482235 0.942667,-0.817849 0.854128,-0.981647 1.325389,-1.9855228 1.511052,-3.2188187 0.06931,-0.4604102 0.07477,-1.3248819 0.01109,-1.7581192 -0.09174,-0.6242628 -0.262612,-1.226226 -0.501153,-1.765532 -0.274069,-0.6196276 -0.440435,-0.9170199 -0.70904,-1.2674695 -0.315818,-0.4120484 -0.299234,-0.8528947 0.0393,-1.0446358 0.193465,-0.1095787 0.46753,-0.061998 0.635368,0.1103074 0.269288,0.2764534 0.846618,1.2245737 1.096453,1.8006514 0.4927,1.1360778 0.726054,2.3911357 0.644726,3.4675392 -0.08504,1.1255789 -0.263587,1.8141502 -0.700533,2.7016972 -0.346291,0.7034 -0.853469,1.373678 -1.540584,2.036004 -0.525672,0.506708 -1.164115,0.939246 -1.762293,1.193934 -0.615702,0.262151 -0.950771,0.368364 -1.162074,0.368364 -0.08188,0 -0.142897,-0.02042 -0.226472,-0.07578 z m -4.9876622,0.03338 C 5.3787528,14.363154 4.7441905,14.110219 4.3615665,13.914503 4.0714325,13.766096 3.5054455,13.403111 3.306,13.237536 2.8918753,12.89374 2.1174209,12.038241 1.8159442,11.591548 1.6604017,11.361084 1.2871345,10.586426 1.127008,10.16177 0.88969697,9.5324206 0.75977588,8.8302447 0.725134,7.9897956 0.69916077,7.3596782 0.81457569,6.3742746 0.98250089,5.792417 1.272699,4.7868803 1.8124209,3.7086584 2.3280785,3.1043115 2.506186,2.8955693 2.626906,2.8087638 2.7773526,2.7812533 3.111535,2.7201437 3.4306461,3.0120988 3.402369,3.353083 3.3919944,3.478242 3.3732258,3.5147848 3.2077915,3.7320124 3.1070922,3.8642387 2.9895082,4.0389788 2.9464945,4.1203236 2.903481,4.2016683 2.8172067,4.3507399 2.7547731,4.4515937 2.6923394,4.5524462 2.6065584,4.7182023 2.5641466,4.8199405 2.5217348,4.9216773 2.4782922,5.0163482 2.4676088,5.0303193 2.4569202,5.0442917 2.4187264,5.1357429 2.3827251,5.2335458 2.3467227,5.3313473 2.2884507,5.4884676 2.2532319,5.5826988 2.1358101,5.8968777 1.9870498,6.4992791 1.9285593,6.897456 c -0.048168,0.3278975 -0.057352,0.4914674 -0.054917,0.9780249 0.00265,0.5299778 0.010151,0.6256758 0.080663,1.0297961 0.2920507,1.673735 1.2465829,3.067328 2.6943107,3.933633 0.3582364,0.214364 0.5864552,0.325997 1.0198834,0.498876 0.4153433,0.165664 0.5222516,0.233073 0.5768337,0.363706 0.06033,0.144389 0.035637,0.405353 -0.049952,0.527899 -0.1223833,0.17523 -0.322215,0.26568 -0.4887773,0.221239 z m 0.050806,-3.453935 C 5.2056617,10.92031 4.7649253,10.693067 4.4528921,10.324092 4.3004321,10.143808 4.2093145,9.9752722 4.1041865,9.6791098 L 4.0320481,9.4758834 4.01329,5.7543121 C 3.9927696,1.6831888 3.9872134,1.8661134 4.1414764,1.534138 4.3521495,1.0807676 4.9101173,0.58194626 5.3263645,0.47485198 c 0.064076,-0.0164856 0.9939766,-0.028837 2.5522146,-0.0339001 2.4451309,-0.007941 2.4517039,-0.007824 2.5657249,0.0453671 0.13984,0.0652411 0.344372,0.22834928 0.704241,0.56161342 0.150581,0.1394479 0.353804,0.3224053 0.451606,0.4065707 0.0978,0.084164 0.375065,0.3529706 0.616141,0.5973464 0.467088,0.4734837 0.534401,0.5722548 0.618877,0.9081079 0.05086,0.2021877 0.05231,6.3051114 0.0016,6.477821 -0.06022,0.2048775 -0.304183,0.6696556 -0.41005,0.7812006 -0.05639,0.05941 -0.102514,0.118558 -0.102514,0.131443 0,0.05507 -0.362929,0.319638 -0.596975,0.435191 -0.454308,0.224299 -0.215698,0.208369 -3.2262098,0.215402 -1.4670358,0.0034 -2.7016324,0.0015 -2.7435478,-0.0043 z m 5.0731912,-0.724035 c 0.489587,-0.0307 0.726748,-0.117245 0.9621,-0.3510978 C 11.989039,9.7264739 12.09022,9.5073781 12.124616,9.202836 12.1663,8.8337317 12.143284,3.3197198 12.099944,3.2929342 12.068262,3.2733541 11.809323,3.2580135 10.809131,3.2164584 10.380957,3.1986709 10.338456,3.1924763 10.208558,3.1289228 10.037409,3.0451878 9.8777889,2.8767301 9.7878955,2.6849706 9.7207606,2.5417601 9.7202628,2.5363242 9.7128165,1.8652748 L 9.7053214,1.1897445 9.1031399,1.1738515 C 8.7719403,1.1651123 7.8219378,1.1640002 6.9920236,1.171392 5.3238389,1.1862422 5.3898655,1.1797256 5.1142,1.3566231 4.9842747,1.4399957 4.9223705,1.5120281 4.8272007,1.6905779 l -0.060516,0.1135349 -0.00724,3.7469754 c -0.00518,2.6794003 7.849e-4,3.779545 0.02091,3.8612888 0.075652,0.3071037 0.2922743,0.602344 0.5303342,0.722806 0.1911157,0.09671 0.3029826,0.120901 0.6499571,0.140574 0.459934,0.02608 4.445063,0.02355 4.869965,-0.0031 z M 10.037853,8.620274 C 9.5418549,8.6107628 8.403734,8.6038668 7.5086949,8.6049606 6.0326602,8.606766 5.8753633,8.6030243 5.8169456,8.5647507 5.6814615,8.4759789 5.6509077,8.2676711 5.7585394,8.1665569 l 0.064638,-0.060724 1.1483662,0.00711 c 0.6316017,0.00391 1.4513,0.017278 1.8215518,0.029718 0.370252,0.012442 1.0275604,0.015834 1.4606846,0.00755 0.767932,-0.014693 0.789078,-0.013774 0.851008,0.037035 0.12758,0.1046697 0.05772,0.3996002 -0.103331,0.4362725 -0.03398,0.00773 -0.467604,0.00628 -0.963602,-0.00324 z M 8.1072082,7.5603221 C 6.4406446,7.5488878 5.8966842,7.537706 5.8554123,7.5140576 5.6666018,7.4058683 5.6167727,7.2101827 5.7422685,7.0697273 l 0.07377,-0.082562 2.6126209,0.00852 c 1.5523759,0.00506 2.6306616,0.018148 2.6570766,0.032249 0.07045,0.037604 0.125746,0.1403467 0.125746,0.2336361 0,0.1004216 -0.06289,0.2339278 -0.126141,0.2677795 -0.07509,0.040183 -0.695888,0.046639 -2.9781324,0.030974 z M 5.7510593,6.3233382 C 5.6403128,6.2143024 5.6354753,6.0748911 5.7389971,5.9757105 l 0.070498,-0.067541 0.7360542,-0.014576 c 0.4048297,-0.00802 1.589644,-0.00548 2.6329205,0.00562 l 1.8968662,0.020208 0.06795,0.063508 c 0.0586,0.054778 0.06627,0.078614 0.05574,0.173403 -0.0084,0.074972 -0.03516,0.133842 -0.08442,0.1852559 l -0.0722,0.075363 -2.6043894,-0.00617 -2.6043896,-0.00617 z M 7.3541154,5.2732848 C 5.873019,5.2593882 5.8245078,5.2573943 5.7701645,5.2082019 5.7002956,5.1449558 5.6430958,5.0366945 5.6430958,4.9677 c 0,-0.028842 0.039153,-0.095141 0.087007,-0.1473304 l 0.087007,-0.094888 2.612085,0.00762 c 2.9017612,0.00845 2.6984752,-0.0051 2.7550362,0.1836899 0.02592,0.086525 0.02426,0.1161907 -0.01065,0.1893835 -0.08683,0.1820651 -0.05885,0.1779965 -1.2362102,0.1798188 -0.5804499,9.144e-4 -1.7429166,-0.00482 -2.5832569,-0.012705 z M 10.342691,4.1274798 C 10.195988,4.1170921 9.1214316,4.1004024 7.9547888,4.0904006 L 5.83362,4.0722142 5.7513237,3.9940198 C 5.6048047,3.8548034 5.6157936,3.6887673 5.7772156,3.6028057 c 0.074785,-0.039825 0.2028338,-0.043139 1.4916863,-0.038608 1.3199184,0.00465 2.0597574,0.030576 3.0610881,0.1072971 0.181633,0.013917 0.417064,0.025271 0.523179,0.02523 0.205344,-7.72e-5 0.250964,0.023064 0.288558,0.1463923 0.02362,0.077474 -0.02817,0.2255627 -0.09534,0.272607 -0.05969,0.04181 -0.237474,0.04478 -0.703694,0.011762 z m 1.270162,-1.6497834 c 0,-0.034091 -0.08788,-0.1250295 -0.441742,-0.4571527 -0.282618,-0.2652518 -0.627606,-0.5593762 -0.656109,-0.5593762 -0.02738,0 -0.04467,0.3690599 -0.02871,0.6126349 0.01408,0.2149081 0.02626,0.2685239 0.07346,0.323397 0.05602,0.065122 0.06124,0.065934 0.523085,0.081243 0.256576,0.00851 0.480792,0.017443 0.498257,0.019861 0.01747,0.00242 0.03176,-0.00685 0.03176,-0.020607 z"
       id="path836"
       sodipodi:nodetypes="sssssssscsscssssccssssssssssssssssssssssssssssssssssssssssssssssssssscsssssssssssssssssssssssscscsscscsssssssscsssssssssscsssssssscsscssscccssssscssscsssscsssscssssssssssss" />
  </g>
</svg>
